<?xml version="1.0" encoding="UTF-8"?>
<svg xmlns="http://www.w3.org/2000/svg" version="1.1" viewBox="0 0 496 496">
  <!-- Generator: Adobe Illustrator 28.7.1, SVG Export Plug-In . SVG Version: 1.2.0 Build 142)  -->
  <g>
    <g id="Layer_1">
      <g>
        <path d="M202.8,210.8c-4.3,19.8-8.6,39.5-12.9,59.3-1,4.7-2.2,9.3-2.8,14.1-.5,3.9-.2,8.3,2.1,11.6,2.6,3.8,6.9,5.5,11.3,6.2,4.7.8,9.5,1.2,14.3,1.3,10.9.2,21.9-1.2,32.4-4.3,1.7-.5,2.8-2.3,2.3-4.1s-2.3-2.8-4.1-2.3c-8.7,2.6-17.4,3.9-26.5,4.1s-9.1-.1-13.6-.7c-1.8-.2-3.6-.4-5.5-.9s-.9-.2-1.3-.4-.4-.1-.6-.2c-.5-.2.4.2-.1,0s-.7-.3-1-.5-.4-.2-.6-.4c-.7-.5.2.3-.4-.3s-.6-.6-.9-1c.3.4-.3-.5-.4-.6-.1-.2-.2-.4-.3-.6,0,.1.2.5,0,0s-.3-.9-.4-1.4,0-.4-.1-.6c0-.5,0,.5,0,0s0-.8,0-1.1c0-1,0-2,.1-3s0-.4,0-.7c0,.1,0,.6,0-.1s.1-.9.2-1.3c.2-1,.4-2,.6-2.9.5-2.4,1-4.7,1.5-7.1,2-9.4,4.1-18.9,6.1-28.3s4.6-21.2,6.9-31.8c.4-1.7-.5-3.7-2.3-4.1s-3.7.5-4.1,2.3h0Z"/>
        <path d="M154.7,239.4c-.2-1.4-.2-2.9-.1-4.3s.1-1.1,0-.9c0,.3,0-.2,0-.2,0-.2,0-.3,0-.5.1-.8.3-1.5.5-2.3s.4-1.4.7-2c-.2.4.1-.3.2-.4.2-.4.3-.7.5-1,.3-.6.7-1.3,1.1-1.9s.4-.5.6-.8c.4-.5.2-.2,0-.1.1-.2.3-.3.4-.5.9-1.1,1.9-2.1,3.1-3-.4.3.4-.3.5-.4.3-.2.6-.4.9-.6.7-.4,1.4-.8,2.1-1.1s.3-.1.5-.2c0,0-.4.1,0,0s.7-.3,1.1-.4c.7-.2,1.4-.4,2.1-.6s.8-.2,1.2-.2,1-.2.5,0c.8-.1,1.6-.2,2.4-.2s1.7,0,2.6,0,.3,0,.5,0c-.4,0,0,0,.1,0,.4,0,.8.1,1.2.2.8.2,1.7.4,2.5.7s.9.3,1.3.5c0,0-.4-.2,0,0s.5.2.8.4c1.6.8,3.6.4,4.5-1.2s.4-3.7-1.2-4.5c-6.5-3.2-14.3-3.8-21-1.1-7,2.7-12.2,8.2-14.8,15.2s-1.9,7.6-1.4,11.4c.2,1.7,1.4,3.4,3.3,3.3s3.5-1.5,3.3-3.3h0Z"/>
        <path d="M241.7,218.5c5.4-2.5,10.6-5,16.4-6.6s5.2-1.3,7.7-1.4,2.6-.1,4,0,2.4.2,3.6.4,2.6.6,3.8,1,2.1.8,3.3,1.5.8.5,1.2.8.5.3.7.5c-.1,0-.5-.4,0,0,.9.7,1.7,1.5,2.4,2.3s.7.8,1,1.2c-.4-.5,0,0,0,0,.2.2.3.5.5.7.6.9,1.1,1.8,1.6,2.8s.4.9.6,1.3c-.3-.7,0,.2.1.3.1.3.2.5.3.8.3,1,.6,2,.8,3.1s0,.5.1.7.2,1.2,0,.4c0,.6.1,1.2.2,1.7,0,1.2,0,2.3,0,3.5s-.1,1.1,0,.3c0,.3,0,.6-.1.9-.1.6-.2,1.1-.4,1.7s-.3,1.1-.5,1.7-.2.5-.3.8c.3-.7-.2.4-.3.5-.8,1.6-.4,3.6,1.2,4.5s3.7.4,4.5-1.2c4.4-9.1,3.1-20.3-3-28.3-3.4-4.4-7.9-7.6-13.2-9.2-6.1-1.9-12.8-1.6-18.9-.3-7.3,1.6-14.1,4.8-20.7,8s-2,3.1-1.2,4.5,2.9,2,4.5,1.2h0Z"/>
        <path d="M125.8,210.5c-5.5,14-10.8,28.2-14.3,42.9-3.4,14.5-5,29.6-2.5,44.4,2.4,14.2,9,27.1,18.4,38s20.4,19.1,32,26.6c12.1,7.8,25.2,14.2,38.8,19,13.5,4.7,27.6,7.7,41.9,8.5,13.6.7,27.6-.6,40.7-4.5,11.7-3.5,22.9-8.9,32.8-16,10-7.1,18.7-15.8,25.7-25.9,6.8-9.8,11.8-21,14.1-32.7.6-3.1,1-6.1,1.3-9.3.2-1.8-1.6-3.3-3.3-3.3s-3.2,1.5-3.3,3.3-.1,1.4-.2,2.2,0,.7-.1,1,0,0,0,0c0,.2,0,.4,0,.7-.2,1.4-.5,2.8-.7,4.2-.6,2.8-1.3,5.7-2.2,8.4s-.9,2.7-1.4,4-.5,1.3-.8,2-.4.9-.2.4c-.1.4-.3.7-.5,1.1-1.2,2.6-2.5,5.2-3.9,7.8s-2.9,4.9-4.6,7.2c-.4.6-.8,1.2-1.2,1.7s-1,1.4-1.2,1.6c-.6.8-1.7,2.2-2.6,3.1-3.8,4.4-7.9,8.6-12.4,12.3s-4,3.2-6.5,5-4.9,3.3-7.5,4.8c-2.5,1.5-5.1,2.9-7.7,4.1s-2.6,1.2-4,1.8-1,.4-.6.3c-.3.1-.6.3-.9.4-.7.3-1.5.6-2.2.9-12,4.6-24.3,6.7-37,6.9-13.7.2-26.9-1.7-40.1-5.4-13.4-3.8-25.9-9.2-38-16.1-11.8-6.7-22.8-14.3-32.6-23.7s-17.3-19.9-21.2-32.7-4-27.5-1.7-41,7.2-28.6,12.4-42.4c1.2-3.3,2.5-6.6,3.8-9.9s-.7-3.6-2.3-4.1-3.4.6-4.1,2.3h0Z"/>
        <path d="M184.4,328.1c20.5,4.8,41.8,5.9,62.7,3.2,6-.8,11.9-1.8,17.7-3.2,1.7-.4,2.8-2.4,2.3-4.1s-2.3-2.7-4.1-2.3c-19.7,4.6-40.2,5.7-60.3,3.1-5.4-.7-11.1-1.8-16.6-3-1.7-.4-3.7.5-4.1,2.3s.5,3.6,2.3,4.1h0Z"/>
        <path d="M354.9,243.9c.3-.3.7-.7,1-1s.6-.5.2-.2c.2-.1.3-.2.5-.4.8-.5,1.6-1,2.4-1.3-.5.2,0,0,0,0,.2,0,.5-.2.7-.3.4-.1.9-.3,1.3-.4s.8-.2,1.2-.2c.7-.1.2,0,0,0,.3,0,.6,0,.9,0,.9,0,1.8,0,2.7,0s.5,0,.8,0c-.1,0-.6-.1,0,0s1,.2,1.5.3c.9.2,1.7.5,2.5.8s-.4-.2,0,0,.5.2.7.3c.5.2,1,.5,1.4.8s.7.5,1.1.7.4.3.5.4c-.4-.3,0,0,.1,0,.8.7,1.6,1.4,2.3,2.2s.7.7,1,1.1.2.2.1.1c.1.2.3.4.4.5.6.9,1.2,1.8,1.7,2.7s.9,1.7,1.3,2.6.1.3,0,.1c.1.3.2.5.3.8.2.5.4,1.1.6,1.6.7,2.1,1.2,4.2,1.4,6.4.6,4.6.4,9.8-.2,14.6-.5,4.5-1.2,9.2-2.4,13.7-1.1,4.3-2.6,8.1-5.1,11.7s-4.7,5.5-8,7.3-1,.5-1.5.7.4-.1-.1,0-.6.2-.9.3c-.5.2-1.1.3-1.6.5s-.4,0-.6.1-1,.2-.6.1-.2,0-.3,0c-.3,0-.6,0-.9,0-.5,0-1,0-1.5,0s-.4,0-.6,0-1-.1-.6,0-.2,0-.3,0c-.3,0-.6-.1-.9-.2-.5-.1-1-.3-1.5-.4s-.4-.1-.6-.2c-.1,0-.3-.1-.4-.2.3.1.3.1,0,0-.9-.4-1.8-.9-2.6-1.5s-.6-.4-.3-.2-.4-.3-.5-.4c-.4-.3-.7-.7-1-1s-.3-.3-.4-.5c-.1-.2-.1-.2,0,0,0-.1-.2-.2-.3-.4-.3-.5-.6-.9-.8-1.4-.8-1.6-3-2.1-4.5-1.2s-2,2.9-1.2,4.5c4.2,8.1,14.7,11.4,23.2,8.8,9.6-2.9,16-11.3,19.3-20.4,1.8-4.9,2.8-10.1,3.5-15.3s1.4-11.2,1-16.8c-.7-9.9-4.4-19.9-12.5-26.1-8.1-6.2-20.7-6.5-28.1,1.1-1.2,1.3-1.3,3.4,0,4.7s3.4,1.3,4.7,0h0Z"/>
        <path d="M116.1,197.1c-13-4.3-21-18.6-20.1-32s3.5-12.9,8.6-17.5c2.4-2.2,5.3-4,8.4-5.4s6.7-2.2,9.4-2.5c7.8-.9,15.2.7,21.5,5.5,1.3,1,3.8.3,4.5-1.2,5.5-12,14.3-23.9,27.5-27.8s13-2,19,.6c5.1,2.1,9.1,6.2,10.9,11.3,2.1,5.9,1.9,11.9-1.9,17l5.7,3.3c6.5-15.4,20.8-26.3,37-29.7,8-1.7,16.4-1.3,24.2,1.2,7.9,2.6,14.9,7.4,20.5,13.4,5.7,6,9.9,13.4,12.2,21.4,1.2,4.1,1.8,8.2,1.8,12.4,0,3.3-.4,7.4-2.6,9.6s-1.4,1.2-2.5.8-.2,0,0,0c-.2,0-.4-.2-.5-.3.5.4-.4-.5-.2-.2s-.3-.6-.4-.7c.2.4-.2-.5-.2-.7s-.1-.4-.1-.7c0,0,0,.4,0,0s0-.8,0-1.2c0-.7,0-.3,0-.1,0-.2,0-.3.1-.5s.1-.4.2-.7.3-.7.1-.3c.1-.2.5-.9.5-.8,0,0,.6-.6.8-.8.7-.7,1.6-1.2,2.5-1.6,4.1-1.8,9-1.8,13.4-2,5.3-.2,10.7-.2,15.8,1.1,8,2,16.4,7.9,17.3,16.7.2,2,0,3.7-.7,5.5s-1.5,2.6-2.6,3.6-2.6,2.1-4,2.7-2.7.8-4.3.8-2.5-.5-3.9-1.5c.5,1.2,1,2.5,1.5,3.7,1.6-8.7,10-14,18.4-14.5s19.9,3.7,27.9,9.4,12.8,11.9,15.7,19.9c2.8,7.8,2.5,16-1.1,23.3-3.8,7.7-10.8,14.1-19.3,14.8-1.8.2-3.3,1.4-3.3,3.3s1.5,3.5,3.3,3.3c20.3-1.8,32.5-24.1,27.9-42.9-2.4-10-8.8-18.8-16.8-25.2s-20-12.3-31.5-12.6c-12-.3-25.2,6.8-27.5,19.4-.3,1.6.2,2.8,1.5,3.7,7.9,5.7,19.2.7,23.5-7.1,5.5-10-.7-21.6-9.1-27.7-9.8-7.2-23.2-7-34.8-5.9-5.4.5-11.4,1.5-15.2,5.7-3.2,3.6-3.9,8.9-1.7,13.2,2.2,4.4,7.9,6,12,3.4s6-7.9,6.4-12.5c1-9.8-2-20.3-6.6-28.9-9.5-17.8-28.1-30.4-48.6-30.5-19.7,0-39.2,10.7-49.5,27.6s-2.4,4.2-3.3,6.5c-1.7,3.9,3.1,6.8,5.7,3.3,8.6-11.4,3.1-28.7-8.5-35.8-13.9-8.5-31.8-3.7-43.2,6.6-6.6,5.9-11.5,13.5-15.2,21.5l4.5-1.2c-13.2-10-32.8-8.2-45.4,1.8-6.3,5-10.7,12.3-12,20.2-1.3,8.3.3,16.7,4.1,24.1s11.6,14.9,20.5,17.8,5.8-5.1,1.8-6.4h0Z"/>
      </g>
    </g>
  </g>
</svg>