<?xml version="1.0" encoding="UTF-8"?>
<svg xmlns="http://www.w3.org/2000/svg" version="1.1" viewBox="0 0 496 496">
  <!-- Generator: Adobe Illustrator 28.7.1, SVG Export Plug-In . SVG Version: 1.2.0 Build 142)  -->
  <g>
    <g id="Layer_1">
      <g>
        <path d="M161.9,252.9c.9-1.8,1.8-3.5,2.9-5.1s1.7-2.5,3.2-4.1,2.7-2.8,4.2-4.1,2.2-1.8,4-3c3.6-2.3,6.5-3.7,10.4-4.8,4.3-1.3,8-1.7,12.6-1.6,4.8.1,9.3,1.1,14,3s4.6-.9,5-2.9-.7-4.2-2.9-5c-17.8-7.1-38.8-2.4-52,11.4-3.4,3.6-6.3,7.7-8.5,12.1s-.5,4.4,1.5,5.6,4.6.5,5.6-1.5h0Z"/>
        <path d="M273.8,224.2c3.7-2.4,6.8-3.7,11.1-4.6s1-.2,1.5-.3.4,0,.6-.1c-.6,0,.1,0,.2,0,1.1-.1,2.2-.2,3.3-.2s2,0,3.1,0,1.7.1,2.6.3c2.1.4,4.1.9,6.1,1.6s1.3.5.7.3c.4.2.9.4,1.3.6.9.4,1.8.9,2.7,1.5,3.2,1.9,5.7,4.1,8.3,7.3.2.2.3.4.5.6-.3-.3,0,0,0,.1.3.4.6.9.9,1.3.6.9,1.2,1.8,1.7,2.8s.6,1.1.8,1.6.2.4.3.6c.3.6,0,0,.1.3.4,1.1.8,2.2,1.1,3.3.6,2.1,2.9,3.5,5,2.9s3.5-2.9,2.9-5c-2.6-8.9-8.4-16.7-16.1-21.9-8.1-5.5-18.2-7.4-27.8-5.9s-10.6,2.8-15.2,5.8-2.6,3.6-1.5,5.6c1.1,1.8,3.8,2.7,5.6,1.5h0Z"/>
        <path d="M241.4,230.7c8.2,21.9,23.1,40.5,42.6,53.4,5.2,3.4,10.4,6.5,14.8,10.8s3.3,3.6,4.7,6.1c.4.6.7,1.3,1,1.9s.3.7,0,.2c.1.3.2.5.3.8.2.7.4,1.4.6,2.1s.1.6.2.8.2,1.3.1.6c0,.7.1,1.4,0,2.2s0,.5,0,.8c0,0-.1,1.2,0,.6s-.1.6-.1.5c0,.2-.1.5-.2.7-.2.6-.4,1.3-.6,1.9s-.4.9,0,.2c-.1.2-.2.4-.3.6-.3.5-.6,1.1-.9,1.6s-.5.8-.8,1.2c.5-.7-.2.2-.3.3-.2.3-.5.6-.7.8-.8.8-1.6,1.6-2.5,2.3.5-.4,0,0,0,0-.3.2-.6.4-.9.6-.5.3-1.1.7-1.6,1s-1.1.6-1.7.9-.5.2-.7.3c.6-.3,0,0,0,0-1.2.5-2.4.9-3.6,1.2s-1.5.3-2.2.4c.2,0,.8,0,0,0s-.8,0-1.1,0c-1.6.1-3.2,0-4.7-.1s-2.6-.4-4.1-.7-3.1-.9-4.6-1.4c-5.9-2.2-11.9-6.1-17.2-10.1-1.8-1.3-4.6-.3-5.6,1.5s-.3,4.3,1.5,5.6c10,7.4,22.3,14.5,35.2,13.4,10.9-.9,22-7.6,25.4-18.4s.7-12.6-2.2-18.1c-3.1-5.9-8.1-10.4-13.5-14.2-5.1-3.7-10.6-6.8-15.6-10.7.4.3-.3-.2-.4-.3-.3-.2-.6-.5-.9-.7-.6-.5-1.1-.9-1.7-1.4-1.1-.9-2.2-1.9-3.3-2.9-2.2-2-4.2-4-6.2-6.2-2.1-2.3-4.5-5.2-6.1-7.2-2-2.6-3.8-5.3-5.6-8.1-3.5-5.6-6.4-11.5-8.5-17.3s-2.8-3.5-5-2.9-3.6,3-2.9,5h0Z"/>
        <path d="M182.8,326.7c12.8,17.9,35.1,28.1,57.1,26.6,6.2-.4,12.3-1.7,18.1-4,2.1-.8,3.5-2.7,2.9-5s-3-3.7-5-2.9-4.8,1.7-7.3,2.4-2.2.5-3.3.7-1.3.2-1.9.3c-1.2.2.5,0-.2,0s-.8,0-1.1.1c-2.5.3-4.9.4-7.4.3-1.3,0-2.5,0-3.8-.2s-1,0-1.5-.1-.8,0-1.1-.1c.7,0-.2,0-.4,0-4.9-.7-9.7-2.1-14.4-3.9,0,0-1.1-.5-.6-.2s-.6-.3-.6-.3c-.6-.3-1.2-.5-1.7-.8-1.1-.6-2.3-1.1-3.4-1.8-2.2-1.2-4.2-2.6-6.2-4s-.5-.4-.8-.6c.6.5-.3-.3-.4-.3-.5-.4-1.1-.9-1.6-1.3-1.1-.9-2.1-1.9-3.1-2.9-2.1-2.1-3.8-4.1-5.1-6s-3.6-2.7-5.6-1.5-2.8,3.8-1.5,5.6h0Z"/>
        <path d="M341.8,219.3c10.2,20.2,20.5,40.7,26,62.8,4.9,19.6,5.6,40.7-1.3,60-3.2,9-8.5,17.5-15,24.4-6.8,7.2-14.3,12.8-22.9,17.8-8.7,5.1-18,9.3-27.5,12.9-10.7,4-21.6,7.3-32.8,9.4-21.1,4-43,3.8-63.6-2.4-18.3-5.5-35.4-15.6-49.2-28.9-7-6.8-12.7-13.8-17.5-22.1-4.7-8.1-8.3-16.6-12.4-25-4.2-8.4-8.9-16.6-15.2-23.7-3.2-3.6-6.8-6.5-10.4-9.6-3.6-3.2-7.1-6.5-10.3-10-6.1-6.6-11.7-14.5-14.6-22.7-1.5-4.6-2.2-8.2-2.1-12.8,0-4.4,1-8.9,2.8-13.2,1.9-4.4,4.3-7.9,7.5-11.1,1.7-1.7,2.9-2.6,4.7-3.8s2-1.2,3.1-1.8.9-.5,1.4-.7.4-.2.6-.3c-.5.2.7-.3.7-.2,8.2-3.1,16.6-2.2,23.9,2.7s5.8,5,7.7,8.6,3.8,2.6,5.6,1.5,2.5-3.6,1.5-5.6c-4.6-8.8-13.7-14.9-23.4-16.5-10.5-1.7-20.6,1.5-28.8,8.1-8,6.4-13.3,16.3-14.8,26.3s.7,20.4,5.6,29.6c4.7,9,11.6,16.8,18.9,23.8,3.6,3.4,7.4,6.4,11,9.7s6.4,6.7,9,10.5c10.9,16,16.2,35.2,28,50.7,12.5,16.4,29.4,29.6,48.1,38.2,20.2,9.2,42.3,13,64.5,11.4,23.7-1.7,46.8-8.6,68.3-18.5,18.9-8.7,37-20.9,48.2-38.7,11.6-18.3,14.6-41.1,12.2-62.3-2.8-23.6-12-45.7-22.3-66.9-2.5-5.2-5.2-10.4-7.8-15.6-1-2-3.8-2.5-5.6-1.5s-2.5,3.6-1.5,5.6h0Z"/>
        <path d="M95.3,249c-.1-.5-.6-1.5-.4-2v.5c0-.2,0-.4,0-.6,0-.3,0-.6,0-.9s0-.7,0-1c0-.1,0-.3,0-.4,0-.5,0-.4,0,.2-.2-.3.3-1.3.4-1.7s.2-.6.3-.8c0-.2.1-.4.2-.5-.2.5-.3.6-.1.3.3-.6.5-1.1.9-1.7s.3-.5.5-.7c.4-.7-.5.6.1-.2s.8-.9,1.3-1.3.7-.8,0,0c.2-.2.5-.4.7-.5.5-.3,1.3-.9,1.8-1-.5.2-.6.2-.3.1.1,0,.3-.1.4-.2.3,0,.6-.2.8-.3s.7-.2,1-.2c.1,0,.3,0,.4,0,.5,0,.4,0-.2,0,.5-.2,1.2-.1,1.8-.1s.6,0,.9,0c.2,0,.4,0,.6,0,.5,0,.4,0-.2,0,.4-.1,1.3.3,1.7.4s.6.2.8.3c.4.2.4.1-.2,0,.2,0,.4.2.5.2,1.9.9,4.5.6,5.6-1.5,1-1.8.6-4.6-1.5-5.6-6.7-3.3-14.7-2.3-20.4,2.5s-7.4,12.4-5.4,18.9,2.9,3.6,5,2.9,3.5-2.8,2.9-5h0Z"/>
        <path d="M141,199.6c.7-.7,1.5-1.3,2.3-1.9s.3-.3.5-.4c.5-.4-.4.3.2-.1s.8-.6,1.2-.9c1.6-1.2,3.4-2.3,5.1-3.2s3.4-1.8,5.2-2.6,1.3-.5.7-.3c.5-.2.9-.4,1.4-.5,1-.4,2-.7,3-1.1,3.7-1.3,7.6-2.2,11.5-2.9s7.2-1,11.5-1.2c18.2-.8,35.7,3.2,53.4,7,18.4,4,36.8,7.4,55.7,6.3,16.8-1,33.5-4.7,49.1-11.2,15.8-6.6,30.4-15.6,43.1-27,1.5-1.4,3-2.8,4.5-4.2s1.6-4.2,0-5.8c-1.6-1.6-4.2-1.6-5.8,0-6.1,5.9-12.1,10.9-18.9,15.5-6.9,4.7-14.1,8.7-21.7,12.1s-7,3-11.1,4.4c-3.9,1.4-7.9,2.6-12,3.7-4,1.1-8.1,1.9-12.3,2.6s-1.9.3-2.8.5-1.7.2-2.6.4c-2,.3-4.1.5-6.1.6-8.5.7-17,.6-25.4-.2s-19.1-2.9-28.6-4.9c-18.2-3.9-36.5-8.3-55.2-8.1-16.3.2-33.3,3.8-46.6,13.6-1.8,1.3-3.5,2.7-5.1,4.1s-1.5,4.3,0,5.8,4.1,1.5,5.8,0h0Z"/>
        <path d="M90,198.5c-1.2-15.4,6.4-29.7,17.7-40,12.6-11.6,29.5-17,46.2-19.6,18.9-2.9,38.1-2.2,57.1-3.1s20-1.4,29.8-3.4,18.2-5,26.9-8.7c31.6-13.4,60.9-36,96.5-36.8,15.3-.3,30.7,3.8,41.8,14.9,11.6,11.6,17.4,28.4,17.9,44.6.5,16.9-4.6,33.7-14.5,47.4s-22.5,22.1-37,27c-3.8,1.3-7.7,2.3-11.6,3s-3.4,3.1-2.9,5,2.9,3.3,5,2.9c16.8-3,32.7-11.4,44.8-23.4,12.8-12.7,21.1-29.5,23.6-47.3,2.5-18-.4-37-9.9-52.7s-23.5-25.1-40.6-28.2c-17-3.1-34.7-.4-50.9,5.2-17.9,6.2-34.3,15.9-51.1,24.3-8.4,4.2-16.9,8.1-25.7,11-9.2,3.1-18.7,5-28.4,6-20.1,2.1-40.4,1.1-60.5,2.9-18.6,1.7-37.9,5.7-53.6,16.5s-25.1,23.8-27.9,40.5c-.7,4-.9,8-.6,12.1s1.8,4.1,4.1,4.1,4.3-1.9,4.1-4.1h0Z"/>
      </g>
    </g>
  </g>
</svg>