<?xml version="1.0" encoding="UTF-8"?>
<svg xmlns="http://www.w3.org/2000/svg" version="1.1" viewBox="0 0 496 496">
  <!-- Generator: Adobe Illustrator 28.7.1, SVG Export Plug-In . SVG Version: 1.2.0 Build 142)  -->
  <g>
    <g id="Layer_1">
      <g>
        <path d="M160.1,217.4c.8-.8,1.5-1.6,2.4-2.3.2-.2.4-.4.6-.5-.3.2-.2.2.2-.1.5-.3.9-.6,1.4-.9,2-1.2,3.2-1.8,5.1-2.4s2.2-.6,3.2-.8,1.3-.2.6-.1c.6,0,1.1-.1,1.7-.2,1.1,0,2.2,0,3.3,0s1.7.2,1,0c.5,0,.9.2,1.4.3,3.7.8,7.1,2.5,9.7,4.7.8.7,1.6,1.4,2.3,2.2s.5.6.8.9c.2.2.3.4.5.6-.2-.3-.2-.3,0,.1.6.9,1.2,1.8,1.7,2.7s.5,1,.7,1.4c.2.4.2.5,0,.1.1.2.2.5.3.7.8,2.1,2.8,3.5,5.1,2.9s3.7-3,2.9-5.1c-2.8-7.4-8.2-13.7-15.4-17.1s-16-4-23.7-1c-4.5,1.7-8.5,4.3-11.7,7.9s-1.6,4.2,0,5.8,4.3,1.7,5.8,0h0Z"/>
        <path d="M244.6,221.8c.2-.3.5-.7.7-1,.7-1-.3.3.2-.3s.8-1,1.3-1.5c1-1.1,2-2.1,3.1-3.1s.5-.4.8-.6,1-.8.4-.3c.5-.4,1.1-.8,1.6-1.2,1.2-.8,2.5-1.6,3.7-2.3s1.2-.6,1.8-.9.5-.2.7-.3c1.2-.5-.7.3.5-.2s2.7-1,4.2-1.4,2.6-.6,3.9-.8,1.4-.2.5,0c.3,0,.5,0,.8,0,.8,0,1.6-.1,2.4-.2,1.3,0,2.6,0,4,0s.8,0,1.2.1c1.3.1-.5,0,.3,0s1.4.2,2.2.4c1.4.3,2.7.7,4,1.1s1.4.5,2,.8c-.2,0-.6-.3,0,0s1,.4,1.4.7c1.2.6,2.3,1.2,3.4,2s1.1.7,1.6,1.1.4.3.6.5c-.6-.4.6.5.7.6,2.1,1.8,4.1,3.8,5.8,6-.4-.5,0,.1.2.3.3.4.5.7.8,1.1.4.7.9,1.3,1.3,2,.8,1.4,1.5,2.8,2.1,4.2-.3-.6,0,0,0,.1.2.5.4,1,.5,1.5.3.7.5,1.5.7,2.3.4,1.5.7,3.1.9,4.6.3,2.2,3.1,3.4,5.1,2.9s3.2-2.9,2.9-5.1c-1.7-12.6-10.1-24.2-21.2-30.4s-25.7-6.5-37.8-.9c-6.7,3.1-12.4,8.1-16.5,14.1-1.3,1.8-.3,4.6,1.5,5.6s4.4.4,5.6-1.5h0Z"/>
        <path d="M218.6,228.7c-.1,4.8-1.4,10.1-3.5,14.4-2.4,4.8-5.1,8.4-9.3,11.8s-.9.8-1.2,1c-.5.3-.9.7-1.4,1-1.1.8-2.3,1.6-3.5,2.4-2.4,1.6-4.8,3.3-7.1,5.2-4.3,3.5-7.6,8-9.5,13.3-3.4,9.9-1.2,21.9,4.9,30.3,6.5,9.1,16.3,14.9,27,18,13.8,4,28.4,3.1,42.5,2.2,2.2-.1,4.2-1.8,4.1-4.1,0-2.1-1.8-4.3-4.1-4.1-12.1.8-24.6,1.7-36.4-.9-2.5-.6-5-1.3-7.4-2.1s-1.1-.4-1.6-.6-.5-.2-.8-.3c.5.2-.1,0-.2,0-1.2-.5-2.3-1.1-3.5-1.7-4.6-2.5-8-5-11.4-9.1s-2.5-3.4-3.6-5.6-.2-.5-.4-.7-.4-.9-.2-.3c-.2-.5-.4-1-.6-1.5-.4-1.2-.8-2.4-1-3.6s-.3-1.2-.4-1.8-.1-.9,0-.5,0-.4,0-.5c-.1-1.3-.2-2.6-.2-3.9s0-1.1,0-1.6.2-1.7,0-.9c.2-1.3.5-2.5.9-3.7s.4-1.1.6-1.7.3-.7,0-.1c.1-.2.2-.5.3-.7.5-1.1,1.2-2.1,1.9-3.1s.2-.3.1-.2c.2-.3.5-.6.7-.8.4-.5.9-1,1.3-1.4.9-.9,1.9-1.8,2.9-2.6s.6-.5.2-.2c.2-.2.5-.4.7-.5.5-.4,1.1-.8,1.6-1.2,1.1-.8,2.2-1.5,3.3-2.3,2.3-1.6,4.6-3.2,6.7-4.9,9.6-7.8,15.3-20,15.6-32.3,0-2.2-1.9-4.2-4.1-4.1-2.3.1-4.1,1.8-4.1,4.1h0Z"/>
        <path d="M237,355.4c9.3,6.6,20.8,10,32.2,9.6s21.5-4.2,30.2-10.9c5-3.8,9.2-8.4,12.6-13.7s.4-4.6-1.5-5.6c-2-1.2-4.4-.4-5.6,1.5-.6,1-1.3,1.9-1.9,2.8s-.2.3-.1.2c-.2.3-.4.6-.7.8-.4.5-.8,1-1.2,1.5-1.6,1.8-3.3,3.5-5.2,5s-3.4,2.6-5.4,3.8c-1,.6-2,1.1-3,1.7s-1,.5-1.5.7-.5.2-.8.4c0,0-1.2.5-.6.3-9.2,3.8-18.8,4.3-28.1,1.9-5.6-1.5-10.3-3.6-15.2-7.1-1.8-1.3-4.6-.3-5.6,1.5-1.2,2.1-.3,4.4,1.5,5.6h0Z"/>
        <path d="M131.9,256.3c-.3,25.3,7,50.3,19.3,72.2,12.1,21.5,29.1,39.7,48.6,54.6s19.7,13.8,30.2,19.4c11.5,6.2,23.7,11.6,36.4,14.8,24.2,6.1,51.6,3.5,70.5-14.2,19.2-18,24.7-44.9,27.6-69.9.4-3.3.7-6.6,1.1-9.9s-2.1-4.2-4.1-4.1-3.9,1.8-4.1,4.1c-1.4,13.1-2.8,25.9-6.4,38.7-1.6,5.8-3.5,11-6,16.1-1.2,2.5-2.6,5-4.1,7.3s-1.4,2.2-2.2,3.3-1.3,1.7-2.3,3c-1.8,2.1-3.7,4.2-5.7,6s-3.7,3.2-6.2,4.8c-4.9,3.2-9.5,5.3-15.1,6.9-2.8.8-5.6,1.4-8.5,1.9s-2.2.3-3.7.5c-1.4.1-2.9.2-4.3.3-6,.2-11.9-.2-17.5-1.3-12.4-2.3-23.9-6.8-35-12.3-10.5-5.2-20.6-11.2-30.1-18-18.4-13-35.3-29.8-47.5-49-12.7-20-21-43-22.4-66.4-.2-3-.2-6-.2-9s-1.9-4.2-4.1-4.1c-2.3.1-4.1,1.8-4.1,4.1h0Z"/>
        <path d="M352.1,240.6c.6-.5.2-.1,0,0,.2-.1.4-.3.6-.4.5-.3.9-.6,1.4-.9.9-.6,1.8-1.1,2.8-1.5,0,0,1.1-.5.5-.2s.3-.1.4-.1c.5-.2.9-.3,1.4-.5,1.1-.3,2.2-.6,3.3-.9s1-.2,1.5-.3,1-.1.2,0c.2,0,.5,0,.7,0,1.1-.1,2.1-.1,3.2-.1s2.1,0,3.2.2.5,0,.7,0c-.2,0-.8-.1,0,0s1.2.2,1.9.3c1,.2,2,.5,2.9.8s1,.3,1.4.5.5.2.7.3c1.1.4-.7-.4.4.2,1.9.9,3.8,1.9,5.5,3.2-.6-.4.4.4.6.5.4.4.8.8,1.2,1.1.9.8,1.7,1.7,2.4,2.7-.3-.4.1.2.2.2.2.3.4.6.6.9.3.5.6,1,.9,1.5.7,1.1,1.3,2.3,1.9,3.4.9,1.8,1.7,4,2.3,6.4.7,2.5,1.2,5,1.6,7.6s.1.8,0,.2c0,.3,0,.6.1.9,0,.6.1,1.2.2,1.8.1,1.3.2,2.7.3,4,.1,2.6,0,5.1,0,7.7-.3,4.6-1.2,9.4-3.1,14.2-.3.9-.7,1.7-1.3,2.9s-1.3,2.3-2,3.5-.7,1-1,1.5-.7.9-.2.3c-.2.2-.3.4-.5.6-.7.9-1.5,1.7-2.3,2.4s-1,.9-1.5,1.3-.7.6-.4.3-.5.3-.5.4c-1.1.8-2.2,1.5-3.4,2.1s-1.2.6-1.8.9-.5.2-.7.3c.5-.2,0,0-.3.1-1.2.4-2.3.8-3.5,1.1s-1.3.3-1.9.4-.8.1,0,0c-.4,0-.8,0-1.1.1-1.1,0-2.3.1-3.4,0s-.6,0-1,0c-.5,0,.6.1-.2,0s-1.3-.2-1.9-.4-1.2-.3-1.8-.6-.5-.2-.7-.3c.7.3-.3-.1-.4-.2-2-1-4.5-.6-5.6,1.5s-.5,4.7,1.5,5.6c9.9,4.7,21.6,2.8,30.4-3.4,9.5-6.8,14.8-17.6,16.5-29,.8-5.7,1-11.5.4-17.3-.5-5.8-1.6-11.6-3.7-17.1-2.1-5.4-5.1-10.6-9.3-14.6-3.7-3.6-8.3-6.2-13.2-7.7-11.2-3.5-23.7-1.4-32.9,5.9-1.7,1.4-1.5,4.4,0,5.8,1.7,1.7,4.1,1.4,5.8,0h0Z"/>
        <path d="M119.4,243.2c-4.2-1.2-8.5.1-11.8,2.8s-4.9,5.9-6.3,9.4c-3,7.5-5.2,15.6-5.9,23.7-1.3,14.4,4.3,30.8,18.6,36.7,7.2,3,16,2.7,22.4-1.8,1.8-1.3,2.7-3.6,1.5-5.6s-3.8-2.8-5.6-1.5-1.1.8-1.7,1.1-.7.4-1.1.5c.2,0,.7-.2-.1,0s-1.3.4-1.9.6-.6.2-1,.2c-.2,0-.4,0-.6.1.4,0,.4,0,0,0-1.4.1-2.7,0-4,0s-.8-.1-.1,0c-.4,0-.8-.1-1.2-.2-.7-.1-1.3-.3-2-.5s-1.3-.4-1.9-.7c.7.3-.5-.2-.5-.3-.2-.1-.5-.2-.7-.4-.6-.3-1.2-.7-1.7-1.1s-.7-.5-1-.7c.5.4-.4-.4-.4-.4-1.1-.9-2-2-2.9-3,.1.1.4.5-.1-.2s-.5-.7-.7-1c-.4-.6-.8-1.3-1.2-2s-.6-1.1-.9-1.7c0,0-.6-1.3-.3-.6-.1-.3-.2-.5-.3-.8-.6-1.5-1-3-1.4-4.5s-.3-1.4-.4-2.1,0-.6-.1-.8c-.2-1.4,0,.8,0-.6s-.2-3.2-.2-4.9c0-6.9,1.8-13.5,4-20.1,1.1-3.3,2-6.4,3.9-9s1.7-1.8,3.1-2.5c-.6.3.2,0,.4-.1s1.5-.3.7-.2c.3,0,.5,0,.8,0,.5,0,.5,0,.1,0,.3,0,.5.1.8.2,2.1.6,4.6-.7,5.1-2.9s-.7-4.5-2.9-5.1h0Z"/>
        <path d="M106.4,192.5c1-16.1,3.2-32.4,9.6-47.5s6.1-12.3,10.3-17.6c-.4.6.4-.5.4-.5.3-.3.5-.7.8-1,.5-.7,1.1-1.3,1.7-1.9,1.1-1.3,2.3-2.5,3.5-3.7,2.7-2.6,4.9-4.4,7.7-6.3,5.9-4,11.2-6.3,18.1-7.7s2.6-.5,3.8-.6,3.6-.3,5.4-.2,3.3.1,5,.3,1.4.2.5,0c.4,0,.8.1,1.2.2.8.1,1.6.3,2.4.5,1.6.4,3.2.8,4.7,1.4s2.4.9,4.3,1.9,2.9,1.6,4.2,2.5,1.8,1.3,3.2,2.6c4.7,4.2,8.4,9.3,12.7,13.9,4.3,4.7,9.4,8.9,15.6,10.8,5.6,1.7,11.7,1.1,17.1-1.1,10.4-4.2,18.4-12.6,28.7-17-1,.4,0,0,.2,0,.3-.1.6-.2.9-.3.6-.2,1.2-.4,1.8-.6s1.2-.3,1.8-.4.6-.1.9-.2c-1.2.2.2,0,.4,0,1.3,0,2.5,0,3.8,0-1.1-.1.7.2,1,.2.9.2,1.7.5,2.5.8s-.7-.4.4.2.7.3,1,.5c.6.3,1.3.7,1.9,1.1s.6.4.9.6c-.7-.5.3.2.3.3.7.6,1.3,1.2,1.9,1.8,1,1,1.9,2.1,2.8,3.2-.5-.7.3.4.3.4.2.3.5.6.7,1,.5.8,1,1.5,1.5,2.3,3.4,5.5,5.8,11.5,8.8,17.2,3.2,6,7.1,11.7,12.5,15.8,6.1,4.6,13.4,5.6,20.9,4.4s7.2-1.6,10.9-2.3,3-.6,4.8-.7,3.8,0,4.8.2,1.5.3,2.3.6.7.3,1.1.4c-.8-.3.4.2.4.2.7.3,1.4.7,2,1.1s.6.4,1,.7c.4.3.4.3,0,0,.2.2.4.3.6.5,1.2,1,2.3,2.2,3.3,3.4-.4-.5,0,0,0,.1.2.3.5.6.7,1,.5.8,1,1.6,1.5,2.4s.7,1.4,1.1,2.2c.6,1.2-.2-.7.2.5s.3.7.4,1.1c.6,1.8,1.1,3.8,1.4,5.7.6,3.6.6,7.9.4,11.7-.2,4.2-.8,8.3-1.3,12.4s2.1,4.2,4.1,4.1,3.8-1.8,4.1-4.1c1.2-8.8,2.1-17.5.6-26.3-1.2-7.2-4.6-14.2-9.9-19.2-5.7-5.4-13-7.7-20.8-6.7-4.1.5-8,1.5-12,2.4s-1.8.4-2.7.6-1.6.3-2.3.3-1.8.1-2.7.1-.9,0-1.4,0-1.4-.1-.9,0c-.8-.1-1.6-.3-2.4-.5s-.7-.2-1.1-.3-.4-.1-.5-.2-.8-.3-.4-.1-.5-.3-.7-.3c-.3-.2-.7-.3-1-.5-.7-.4-1.3-.8-2-1.3s.3.2-.3-.3-.6-.5-.8-.7c-.6-.5-1.2-1.1-1.8-1.7s-1-1.1-1.5-1.7-.2-.3-.4-.4-.4-.5-.2-.2-.1-.2-.1-.2c-.2-.2-.3-.4-.5-.6-3.9-5.4-6.5-11.4-9.4-17.3-5.7-11.7-14.9-24.4-29.5-23.8s-21.1,9-30.7,15.1c-1.2.8-2.5,1.5-3.8,2.2s-1.2.6-1.8.9-.6.3-.9.4-1.1.5-.7.3-.4.2-.5.2c-.3.1-.6.2-.9.3-.6.2-1.3.4-2,.6s-1.2.3-1.8.4-.9.1-.1,0c-.4,0-.7,0-1.1.1-.6,0-1.3,0-1.9,0s-.6,0-1,0-1.2-.1-.4,0c-1.5-.2-2.9-.6-4.4-1.1s.1,0,.2,0c-.2,0-.3-.1-.5-.2-.3-.2-.6-.3-1-.5-.7-.4-1.3-.7-2-1.2s-1.2-.8-1.8-1.2c.6.4-.1,0-.3-.3-.3-.3-.7-.5-1-.8-4.8-4.2-8.6-9.4-12.9-14.1s-10.5-9.5-17.1-12.2c-13.4-5.5-29.2-4.3-42.2,1.8-13.2,6.2-23.6,17.4-30.7,30-8.2,14.6-11.9,31.1-13.8,47.5-.5,4.1-.8,8.2-1.1,12.3-.1,2.2,2,4.2,4.1,4.1s4-1.8,4.1-4.1h0Z"/>
      </g>
    </g>
  </g>
</svg>