<?xml version="1.0" encoding="UTF-8"?>
<svg xmlns="http://www.w3.org/2000/svg" version="1.1" viewBox="0 0 496 496">
  <!-- Generator: Adobe Illustrator 28.7.1, SVG Export Plug-In . SVG Version: 1.2.0 Build 142)  -->
  <g>
    <g id="Layer_1">
      <g>
        <path d="M165.6,202.6c0-.1-.2,1.3,0,.8s-.1.9-.1.8c0,.6-.2,1.2-.3,1.7-.2,1.5-.5,2.9-.8,4.3-.5,2.6-1.1,5.2-1.8,7.7s-1.5,5.2-2.4,7.8-.8,2.4-1.3,3.5-.5,1.4-.8,2.1-.2.5-.3.8c-.5,1.3.3-.7-.3.6-2.2,5-4.6,9.8-7.4,14.5-1.4,2.3-2.8,4.5-4.3,6.7s-1.5,2.2-2.3,3.2c-.9,1.2-1.2,1.6-2.2,2.8-3.4,4.2-7.1,8.2-11.1,11.9-3.9,3.6-8.3,7-10.6,12-2.3,4.9-2.1,10.6.9,15.2s7.2,7.3,12,9.2c5.7,2.3,11.7,2.3,17.8,2.1s13.1-.7,19.3,1.8c2,.8,4.6-.9,5-2.9s-.7-4.2-2.9-5c-5.5-2.3-11.7-2.4-17.6-2.3-2.9,0-5.9.2-8.8.2-1.4,0-2.7,0-4.1-.2-.3,0-.6,0-.9,0,.2,0,.8.1,0,0s-1.2-.2-1.8-.4c-1-.2-2.1-.6-3.1-.9s-.6-.2-.9-.3c.2,0,.7.3,0,0s-1.1-.5-1.7-.8c-.9-.5-1.8-1.1-2.6-1.7s.7.6-.2-.1-.4-.3-.5-.5c-.4-.4-.8-.8-1.2-1.2s-.9-1.2-.4-.5c-.3-.4-.6-.8-.8-1.3s-.7-1.6-.4-.7c-.2-.5-.4-1-.5-1.6s0-.4-.1-.6c0,.2,0,.9,0,.1s0-1,0-1.5.1-.9,0-.3.2-.6.2-.6c0-.3.2-.5.2-.8.2-.8-.2.2.2-.5s.5-1,.8-1.4.9-1.3.6-.9c.8-1.1,1.8-2,2.7-3,1.9-1.8,3.8-3.5,5.7-5.3,3.8-3.6,7.4-7.6,10.7-11.7,6.7-8.4,12.4-17.5,16.7-27.3,5-11.3,8.3-23.2,9.8-35.5.3-2.1-2.1-4.2-4.1-4.1s-3.8,1.8-4.1,4.1h0Z"/>
        <path d="M147.8,143.5c3.3,14.8,8.8,29.1,16.1,42.4s16.5,25.6,27.2,36.3c11,11,23.6,20.5,37.3,27.8,14.4,7.7,30,13.2,46,16.2,16,3,32.5,3.8,48.8,1.9s4.4-.6,6.6-.9,3.4-3.1,2.9-5-2.8-3.2-5-2.9c-3.5.5-7.1,1-11,1.3-4,.3-8,.4-12,.4-3.9,0-7.8-.2-11.7-.5s-4-.3-6-.6-.9-.1-1.4-.2-1.2-.2-.7,0c-1-.1-2-.3-3-.4-7.8-1.2-15.5-3-23.1-5.4-7.6-2.4-14.4-5.1-21.5-8.5-7-3.4-13.7-7.4-20.1-11.8s-11.1-8.4-16.5-13.5c-5.3-5-10.2-10.3-14.8-16-1.3-1.6-1.8-2.3-3-3.9s-2.2-3-3.2-4.5c-2.1-3-4-6-5.9-9.2-1.9-3.1-3.6-6.3-5.2-9.5s-1.6-3.3-2.4-5-.7-1.6-1.1-2.3-.4-.9-.6-1.4-.2-.4-.3-.6c.2.4,0,0,0-.2-2.8-6.7-5.1-13.6-6.9-20.6-.5-1.8-.9-3.6-1.3-5.4-.5-2.2-3-3.4-5-2.9s-3.3,2.9-2.9,5h0Z"/>
        <path d="M196.2,107.5c3.4-1,6.9-1.9,10.3-2.6,1.7-.4,3.4-.7,5.1-1s1.6-.3,2.4-.4.9-.1,1.4-.2.7,0,.3,0,.4,0,.5,0c7-.9,14-1.2,21.1-1,3.6.1,7.1.4,10.6.7s1.6.2,2.4.3,1.4.2.7,0c.5,0,.9.1,1.4.2,1.7.3,3.5.5,5.2.9,6.9,1.3,13.8,3.1,20.5,5.3s3.3,1.2,4.9,1.8,1.6.6,2.4,1,.7.3,1.1.5.4.2.6.2c1.2.5-.4-.2.3.1,3.2,1.4,6.4,2.9,9.5,4.5,6.3,3.2,12.3,6.9,18,11.1.7.5,1.4,1,2.1,1.6s.9.7.7.5c-.3-.2.2.2.2.2.2.2.4.3.6.5,1.4,1.1,2.8,2.3,4.2,3.5,2.6,2.3,5.2,4.6,7.6,7.1,2.5,2.5,4.9,5.2,7.2,7.9,2.4,2.9,3.9,4.9,6.1,8,4.1,5.9,7.8,12.2,10.9,18.7s1.6,3.4,2.3,5.1c.3.7,0-.1.2.5s.3.8.5,1.1c.4.9.7,1.8,1.1,2.7,1.3,3.3,2.4,6.7,3.4,10.2,2,6.9,3.6,14,4.6,21.2,0,.5,0,0,0,0,0,.3,0,.5.1.8,0,.4.1.8.1,1.2.1,1,.2,1.9.3,2.9.2,1.8.3,3.6.4,5.4.2,3.6.3,7.2.2,10.7,0,3.6-.3,7.3-.6,10.9s-.4,3.6-.6,5.3,0,0,0,0c0,.2,0,.4,0,.6,0,.5-.1,1-.2,1.4-.1.9-.3,1.8-.4,2.6-1.2,7.1-3,14.1-5.4,21s-1.2,3.5-1.9,5.2c-.3.8-.6,1.5-.9,2.3s0,0,0,0c-.1.3-.2.5-.3.8-.2.4-.4.9-.6,1.3-1.5,3.4-3.2,6.8-5,10.1-4,7.5-8.3,15-10.9,23.2s-3.2,16.6-.1,24.4,7.8,12.7,14.1,16.8c14.7,9.6,32.7,8.6,49.1,4.9,4.4-1,8.8-2.2,13.1-3.3,2.1-.6,3.5-2.9,2.9-5s-2.9-3.4-5-2.9c-8.8,2.4-17.7,4.8-26.6,5.6-8.2.7-15.4.1-23-2.9-.7-.3.2.1-.5-.2s-.8-.4-1.3-.6c-.8-.4-1.5-.8-2.3-1.2s-1.5-.9-2.2-1.3-1.7-1.2-2-1.4c.3.2-.2-.2-.2-.2-.2-.1-.3-.2-.5-.4-.3-.3-.6-.5-.9-.8-.7-.6-1.3-1.2-2-1.9s-1.1-1.2-1.7-1.9.1.2-.3-.4-.5-.7-.8-1.1c-.5-.7-.9-1.4-1.3-2.1s-.4-.7-.5-1-.2-.3-.2-.5-.3-.8-.2-.4-.1-.3-.1-.4c0-.2-.1-.4-.2-.5-.1-.4-.2-.7-.4-1.1-.3-1-.5-2-.7-3s-.2-1.2-.1-.7c0-.4,0-.9-.1-1.4,0-1,0-2.1,0-3.1,0-2.1.2-3.1.7-5.2,1.8-8.1,5.5-15,9.5-22.3,3.7-6.9,7.2-13.8,10-21.1,5.2-13.7,8.1-28.3,8.8-42.9.7-14.7-.8-29.5-4.4-43.7s-9.3-27.9-17.1-40.3c-7.7-12.3-17.3-23.3-28.5-32.4-11.3-9.2-23.9-16.6-37.3-22.1-13.3-5.5-27.5-8.9-41.8-10.3s-28.7-.6-42.7,2.4-6.7,1.6-9.9,2.6c-2.1.6-3.5,2.9-2.9,5s2.9,3.5,5,2.9h0Z"/>
        <path d="M117.7,238.9c.5-.6,1.1-1.2,1.7-1.7s1-.8.4-.4c.3-.2.7-.5,1-.7.7-.4,1.4-.8,2.1-1.2,1.1-.6-.6.2.5-.2s.8-.3,1.2-.4c.8-.2,1.6-.4,2.4-.6s1.3-.2.5,0c.4,0,.8,0,1.2,0,.8,0,1.6,0,2.4,0,1.3,0-.7-.2.5,0s.8.2,1.2.2c.8.2,1.5.4,2.2.7s-.4-.2.5.2.7.4,1,.5c.7.4,1.3.8,2,1.3s-.3-.3.4.3.6.5.9.8c.6.5,1.1,1.1,1.6,1.7s0,0,.2.3.4.6.7,1c.4.7.8,1.3,1.1,2.1,0,.2.2.4.2.5-.1-.3-.2-.3,0,0,.2.4.3.9.4,1.3.6,2.1,2.9,3.5,5,2.9s3.5-2.9,2.9-5c-2.4-7.9-8.9-14.4-16.9-16.3-8.3-2-17.5.8-23.2,7.2-1.5,1.7-1.6,4.2,0,5.8s4.3,1.7,5.8,0h0Z"/>
        <path d="M184.2,254.7c3-1.3,7.2-2.3,10.5-2.4,1,0,2,0,3,0s1.1,0,1.6,0,1.4.1,1,0c2,.3,4.1.8,6,1.4,6.4,2.1,12,6.8,15.6,12.4s1.1,1.8,1.5,2.7.5,1,.7,1.5.3.6.1.3.2.4.2.5c.8,2,1.4,4,1.8,6.1s3,3.4,5,2.9c2.3-.6,3.3-2.9,2.9-5-1.6-8.3-6.2-16.1-12.5-21.6-7.1-6.1-16.1-9.4-25.4-9.4-5.6,0-11,1.3-16,3.6s-2.5,3.9-1.5,5.6,3.6,2.4,5.6,1.5h0Z"/>
        <path d="M143.2,180.6c-2.1,3.6-3.7,5.7-6.7,8.6-.6.6-1.3,1.2-2,1.8s-.7.6-1,.9-.4.3-.6.5-.8.6-.2.2c-1.5,1.1-3.1,2.2-4.7,3.1s-3.4,1.9-5.2,2.7c0,0-.8.4-.4.2s-.2,0-.2,0c-.4.2-.8.3-1.3.5-1,.4-1.9.7-2.9,1-1.8.5-3.6,1-5.5,1.3s-1,.2-1.5.3-.4,0-.6,0c-.7,0,.6,0,0,0-1,.1-1.9.2-2.9.3-2.2.1-4.4.1-6.6,0s-1-.1-1.5-.2-.8-.1,0,0c-.3,0-.5,0-.8-.1-1.1-.2-2.3-.4-3.4-.7-2.1-.5-4.5.7-5,2.9-.5,2.1.6,4.5,2.9,5,17,4.2,35.4-1.1,48.2-12.9,3.6-3.3,6.7-7.2,9.1-11.3s.4-4.5-1.5-5.6-4.5-.4-5.6,1.5h0Z"/>
        <path d="M92.7,203.7c.3-5,.6-10,1-15s.5-5.2.8-7.7.3-2.3.4-3.4c0,.1.2-1.3,0-.7s0-.4,0-.5c0-.7.2-1.4.3-2.1,1.5-9.8,3.7-19.5,7.4-28.7.1-.3.3-.6.4-1,0,.2-.3.6,0-.2s.4-1,.7-1.5c.5-1.1,1.1-2.2,1.6-3.3,1.1-2.1,2.3-4.2,3.6-6.3,1.3-2,2.7-4,3.9-5.4s3.3-3.8,5.1-5.5,1.6-1.5,2.5-2.2,1-.8,1.4-1.2.7-.6.4-.3.5-.4.6-.4c2-1.5,4.1-2.9,6.2-4.1s4.3-2.3,6.5-3.2-.5.2.2,0,.5-.2.8-.3c.6-.2,1.2-.4,1.8-.7,1.2-.4,2.4-.8,3.6-1.2,2.6-.8,5.2-1.4,7.9-1.8s.7-.1,1-.2c.7-.1,0,0,.4,0,.7,0,1.4-.2,2.1-.2,1.3-.1,2.6-.2,3.9-.2,2.8,0,5.5,0,8.3.3s.6,0,.8,0,1.3.2.6,0c.7,0,1.4.2,2.1.3,1.4.2,2.7.5,4.1.9,2.1.5,4.5-.7,5-2.9.5-2.1-.6-4.5-2.9-5-20.7-5.2-43.1.2-59.5,13.7-16.3,13.4-24.1,34.2-27.6,54.4s-2.9,23.8-3.6,35.7c-.1,2.1,2,4.2,4.1,4.1s4-1.8,4.1-4.1h0Z"/>
        <path d="M77.6,245.7c-1.4,20.9,1.3,42.2,7.8,62.1,6.6,19.9,17,38.7,31.1,54.2,13.8,15.1,31.1,26.7,50.5,33.3,18.9,6.4,39.3,7.9,58.9,4.8,19.3-3.1,37.9-11.3,52.6-24.3s3.6-3.3,5.2-5c1.5-1.6,1.6-4.2,0-5.8-1.6-1.6-4.3-1.6-5.8,0-6.7,7-13.2,11.9-21.9,16.5-2,1.1-4.1,2.1-6.2,3.1s-1,.5-1.5.7-.9.4-.2,0c-.2,0-.5.2-.7.3-1.1.4-2.2.9-3.3,1.3-4.4,1.6-9,3-13.6,4-2.2.5-4.5.9-6.7,1.3-.6.1-1.3.2-1.9.3s-.5,0-.8.1c.8-.1.1,0,0,0-1.3.1-2.5.3-3.8.4-4.7.4-9.4.6-14.1.5s-4.7-.2-7.1-.4c-1.1,0-2.3-.2-3.4-.3s-1.1-.1-1.7-.2c-.8-.1-.2,0,0,0-.4,0-.8-.1-1.1-.2-4.7-.7-9.3-1.7-13.9-2.9-4.6-1.2-9.1-2.8-13.4-4.6,0,0-1.1-.5-.6-.2s-.6-.3-.6-.2c-.5-.2-.9-.4-1.4-.6-1.2-.5-2.3-1.1-3.5-1.6-2.1-1-4.2-2.2-6.3-3.3-4.2-2.4-8.2-5.1-12.1-8.1-.6-.5.7.6-.3-.2s-.4-.3-.6-.5c-.5-.4-.9-.8-1.4-1.1-1-.8-2-1.6-2.9-2.5-1.9-1.7-3.8-3.4-5.6-5.2-3.5-3.5-6.9-7.2-10-11.1-1.5-1.9-2.5-3.2-4.1-5.4s-2.8-4.1-4.2-6.2c-2.7-4.2-5.1-8.6-7.4-13.1s-2.2-4.6-3.3-7-.4-1-.6-1.5c.2.6,0,0,0-.1-.1-.3-.3-.6-.4-.9-.5-1.2-1-2.4-1.4-3.6-3.6-9.5-6.3-19.4-8-29.4s-.4-2.3-.6-3.4-.2-1.4-.3-2c0,.2,0,.7,0-.1s-.1-.8-.2-1.2c-.3-2.5-.6-5-.7-7.5-.4-5.1-.5-10.2-.4-15.3,0-2.4.2-4.9.3-7.3.1-2.1-2-4.2-4.1-4.1-2.3.1-4,1.8-4.1,4.1h0Z"/>
        <path d="M181,334.4c22.8,8.7,49.9,4.4,69.5-9.8,5.8-4.2,10.9-9.1,15.2-14.8s.3-4.6-1.5-5.6-4.3-.3-5.6,1.5c.5-.6-.3.4-.3.4-.2.3-.5.6-.7.9-.4.5-.8,1-1.3,1.5-.9,1.1-1.9,2.1-2.9,3.1-1,1-2.1,2-3.1,2.9s-1,.8-1.5,1.2-.5.4-.8.6c-.2.1-.3.2-.5.4.3-.2.3-.2,0,0-4.6,3.3-9.4,6.2-14.6,8.4s.9-.3-.3.1-.7.3-1.1.4c-.6.2-1.2.5-1.8.7-1.3.5-2.7.9-4.1,1.3-2.7.8-5.5,1.5-8.3,2s-1.3.2-1.9.3c-1.3.2.8,0-.5,0s-.8,0-1.2.1c-1.4.2-2.8.3-4.3.3-2.8.1-5.7.1-8.5,0s-1.5-.1-2.3-.2-.5,0-.8,0c-.3,0-.5,0-.8,0,.5,0,.4,0,0,0-1.5-.2-3.1-.5-4.6-.8-3.2-.7-6.3-1.6-9.3-2.8-2-.8-4.6.8-5,2.9s.7,4.2,2.9,5h0Z"/>
        <path d="M282.4,387.6c20.2,5,40.8,10.1,61.8,9.2,16.5-.7,33.4-5.4,46.7-15.5,7.3-5.5,13.5-12.4,17.6-20.7,1-2,.5-4.4-1.5-5.6s-4.6-.5-5.6,1.5-1.7,3.3-2.7,4.9-1,1.5-1.5,2.3-.5.7-.8,1.1,0,0,0,0c-.2.3-.4.5-.6.8-2.3,2.9-5,5.5-7.8,7.8s-.7.6-1.1.9c.5-.4-.5.3-.6.4-.8.6-1.6,1.2-2.4,1.7-1.6,1-3.1,2-4.8,2.9s-3.3,1.8-5,2.5-.9.4-1.3.6-.4.2-.6.2c.2,0,.6-.3-.1,0s-1.8.7-2.6,1c-3.6,1.3-7.3,2.4-11.1,3.2-1.8.4-3.7.7-5.6,1s0,0,0,0c-.3,0-.5,0-.8.1-.5,0-.9.1-1.4.2-1.2.1-2.3.2-3.5.3-9.8.7-19.7,0-29.2-1.5-11.2-1.8-22.3-4.5-33.3-7.2-2.1-.5-4.5.7-5,2.9s.6,4.5,2.9,5h0Z"/>
      </g>
    </g>
  </g>
</svg>